<?xml version="1.0" encoding="UTF-8" standalone="no"?><!DOCTYPE svg PUBLIC "-//W3C//DTD SVG 1.1//EN" "http://www.w3.org/Graphics/SVG/1.1/DTD/svg11.dtd"><svg width="100%" height="100%" viewBox="0 0 1867 1867" version="1.1" xmlns="http://www.w3.org/2000/svg" xmlns:xlink="http://www.w3.org/1999/xlink" xml:space="preserve" xmlns:serif="http://www.serif.com/" style="fill-rule:evenodd;clip-rule:evenodd;stroke-linejoin:round;stroke-miterlimit:2;"><g><path d="M347.49,1224.11c35.605,28.75 75.197,52.187 117.52,69.595c-26.427,68.541 -37.635,212.803 -17.771,266.405c6.979,2.355 14.281,3.615 21.656,3.74c6.323,1.021 12.782,1.021 19.115,-0c27.48,-45.843 43.011,-174.72 34.053,-250.28l-0.01,-0.011c33.365,9.782 67.405,17.073 101.842,21.813c28.366,4.083 56.939,6.625 85.574,7.615l44.802,-0l22.698,-1.042l11.5,-0.896l14.938,-1.937l-0.01,-0.011c29.885,-5.802 57.24,-20.698 78.333,-42.645c21.083,-21.948 34.885,-49.875 39.491,-79.957c1.645,-10.219 2.145,-20.584 1.5,-30.918c-0.25,-5 -0.792,-9.989 -1.646,-14.927l-1.49,-7.615c-0.01,-4.562 0.386,-9.104 1.188,-13.593c0.989,-6.188 2.281,-12.313 3.885,-18.365c1.667,-6.271 3.656,-12.458 5.979,-18.521l3.885,-10.75l0.896,-2.687l1.938,-6.417c1.125,-4.458 1.823,-9.01 2.083,-13.594c0.938,-18.604 -5.562,-36.813 -18.062,-50.624c-6.386,-7.052 -14.167,-12.687 -22.854,-16.572c-2.136,-0.99 -4.323,-1.834 -6.563,-2.542l-4.479,-1.344l-4.781,-1.489c-12.448,-3.813 -24.511,-8.813 -35.99,-14.938c-20.833,-9.864 -38.25,-25.729 -50.032,-45.541c-2.625,-4.782 -4.823,-9.771 -6.572,-14.938l-0,-2.385l0.895,-0c8.209,1.041 16.573,1.489 24.792,2.094c16.427,0.895 32.853,1.197 49.136,0.75c16.281,-0.448 32.405,-1.646 48.531,-3.438l-0,-0.01c16.521,-1.823 32.917,-4.563 49.136,-8.209c8.302,-2.021 15.718,-6.708 21.114,-13.343c5.396,-6.636 8.469,-14.855 8.75,-23.396l3.438,-105.728l-0.01,-0c22.927,-6.552 44.688,-16.625 64.52,-29.864c7.302,-4.979 14.229,-10.469 20.749,-16.427c3.917,-3.5 7.563,-7.303 10.907,-11.344c3.552,-4.281 6.708,-8.885 9.406,-13.74c16.166,-28.624 16.677,-63.509 1.343,-92.594c-5.177,-9.229 -11.958,-17.469 -20.01,-24.334c-6.177,-5.479 -12.771,-10.468 -19.708,-14.937c-6.125,-3.729 -10.011,-6.865 -14.938,-10.156c-18.135,-12.313 -34.509,-27.032 -48.677,-43.75c-25.448,-30.053 -42.947,-65.989 -50.928,-104.541c-3.615,-16.833 -5.459,-34 -5.521,-51.219c0,-18.218 -1.042,-35.541 -2.833,-51.52c-0.75,-7.312 -10.906,-12.094 -22.105,-10.75c-11.197,1.344 -17.625,6.417 -17.771,12.396c0,14.938 -1.645,30.76 -3.437,47.939c-2.313,20.437 -2.313,41.082 -0,61.52c5.719,48.738 24.219,95.104 53.605,134.405c16.365,22.261 35.771,42.115 57.646,58.979c5.374,4.177 11.645,9.104 16.427,12.395c4.01,2.792 7.812,5.886 11.343,9.261c1.959,1.75 3.532,3.885 4.636,6.271c1.115,2.667 1.812,5.49 2.094,8.364c0.593,5.875 -0.834,11.771 -4.032,16.73c-0.729,1.177 -1.583,2.281 -2.541,3.281c-1.208,1.292 -2.5,2.489 -3.885,3.583c-4.105,3.438 -8.448,6.584 -12.99,9.406c-20.719,12.021 -43.605,19.844 -67.355,23c-17.218,2.834 -30.176,17.219 -31.208,34.646l0,1.041l-5.677,101.542l-11.344,1.646c-13.739,1.343 -27.77,2.093 -41.666,2.385c-13.886,0.302 -28.072,0 -41.958,-1.198c-7.02,0 -14.041,-1.042 -20.906,-2.094l-11.948,-1.343l0,0.01c-21.354,-2.146 -42.594,4.99 -58.322,19.594c-15.719,14.604 -24.396,35.272 -23.813,56.72c0.052,4.156 0.448,8.302 1.198,12.396c0,3.583 1.198,5.229 1.792,7.916c0.593,2.688 2.687,9.709 4.177,14.938l-0,-0.01c3.281,9.448 7.385,18.593 12.25,27.333c19.562,34.061 48.907,61.48 84.219,78.699c14.823,7.749 30.322,14.145 46.29,19.114l-0.896,2.542c-6.114,16.823 -10.468,34.24 -12.989,51.968c-1.636,10.562 -2.084,21.281 -1.344,31.957l0,2.542c-0.896,-4.333 1.198,6.719 1.042,5.521l-0,1.791l0.75,3.584c0.479,2.364 0.781,4.76 0.896,7.166c0.614,4.959 0.614,9.969 -0,14.938c-1.771,14.302 -7.907,27.72 -17.584,38.416c-9.677,10.688 -22.406,18.136 -36.48,21.313l-7.021,1.198l-10.01,1.041l-20.313,1.49c-13.437,0.896 -27.032,1.198 -40.322,1.344l0.021,-0c-26.23,0.135 -52.448,-1.063 -78.552,-3.584c-48.198,-4.104 -95.75,-13.781 -141.72,-28.824c-84.968,-28.824 -151.126,-76.312 -183.678,-121.853c-3.583,-5.073 -14.937,-4.782 -24.792,0.896c-9.854,5.677 -13.593,14.041 -10.302,20.312c19.219,33.835 45.011,63.491 75.864,87.208l0.003,-0.004Zm518.933,-137.978l0.896,-0l-0.896,-0Z" style="fill-rule:nonzero;"/><path d="M1164.48,936.054c-7.011,2.115 -13.688,5.177 -19.865,9.115c-5.76,2.812 -11.208,6.218 -16.281,10.146c-1.792,11.646 -1.344,25.531 -2.24,40.322c-1.114,31.158 -8.906,61.71 -22.844,89.606c-6.271,13.437 -13.437,25.531 -17.468,36.738l-0,-0.01c2.906,6.615 6.458,12.917 10.604,18.823c2.937,5.489 6.656,10.521 11.041,14.927c19.375,-2.594 37.366,-11.458 51.23,-25.229c19.521,-18.438 33.458,-42 40.218,-67.989c6.761,-25.98 6.063,-53.344 -1.989,-78.958c-5.292,-18.958 -16.688,-35.645 -32.405,-47.49l-0.001,-0.001Z" style="fill-rule:nonzero;"/><path d="M1267.68,1193.95c-17.021,29.864 -35.24,54.355 -46.739,72.875c2.417,6.792 6.229,13 11.198,18.219c6.416,7.76 12.25,13.292 13.594,12.698c30.978,-14.48 58.25,-35.824 79.738,-62.427c60.958,-73.083 85.939,-169.645 68.094,-263.125c-5.875,-33.739 -19.354,-65.71 -39.416,-93.48c-7.448,0.145 -14.74,2.156 -21.209,5.823c-6.208,1.937 -11.906,5.197 -16.729,9.562c1.042,21.656 5.521,51.667 5.823,86.165l0,-0.01c0.604,37.28 -3.614,74.469 -12.541,110.656c-9.448,36.011 -23.5,70.635 -41.814,103.043l0.001,0.001Z" style="fill-rule:nonzero;"/><path d="M1504.5,834.667c7.438,43.635 12.417,87.667 14.927,131.864c1.896,58.416 -4.343,116.814 -18.51,173.52c-15.042,56.542 -37.864,110.72 -67.803,160.979c-23.354,37.624 -48.781,73.917 -76.157,108.72c-1.344,1.792 3.729,10.459 11.198,18.969c7.469,8.51 12.99,12.542 14.938,11.354l-0,-0.01c42.301,-25.584 79.301,-59.043 109.01,-98.563c41.28,-53.76 71.28,-115.312 88.187,-180.947c16.917,-65.645 20.396,-134.021 10.219,-201.042c-6.813,-49 -22.938,-96.24 -47.48,-139.176c-1.198,-2.094 -11.052,-0 -21.803,3.885c-10.76,3.875 -17.031,8.354 -16.729,10.448l0.003,-0.001Z" style="fill-rule:nonzero;"/></g></svg>