<?xml version="1.0" standalone="no"?>
<!DOCTYPE svg PUBLIC "-//W3C//DTD SVG 20010904//EN"
 "http://www.w3.org/TR/2001/REC-SVG-20010904/DTD/svg10.dtd">
<svg version="1.0" xmlns="http://www.w3.org/2000/svg"
 width="700.000000pt" height="700.000000pt" viewBox="0 0 700.000000 700.000000"
 preserveAspectRatio="xMidYMid meet">
<metadata>
Created by potrace 1.14, written by Peter Selinger 2001-2017
</metadata>
<g transform="translate(0.000000,700.000000) scale(0.100000,-0.100000)"
fill="#000000" stroke="none">
<path d="M3414 5860 c-29 -11 -35 -23 -39 -73 -23 -277 -23 -302 -9 -397 20
-127 43 -201 99 -315 83 -170 174 -277 350 -417 44 -35 84 -75 89 -89 12 -36
0 -76 -32 -106 -40 -39 -177 -99 -261 -117 -135 -27 -156 -60 -166 -251 -8
-178 -16 -269 -22 -275 -5 -6 -353 -5 -484 1 -76 4 -91 1 -133 -21 -198 -102
-214 -321 -40 -566 37 -53 117 -131 172 -170 36 -25 169 -92 207 -104 22 -7
43 -15 47 -19 5 -4 -3 -51 -17 -106 -17 -67 -25 -123 -24 -174 1 -42 2 -108 3
-147 1 -85 -26 -147 -88 -200 -69 -59 -119 -68 -386 -69 -231 0 -337 6 -455
25 -33 5 -78 12 -100 16 -22 3 -43 8 -46 10 -3 2 -21 6 -40 9 -19 3 -65 15
-104 26 -298 87 -521 212 -703 396 -108 108 -122 116 -172 86 -49 -28 -57 -76
-20 -113 3 -3 22 -30 43 -61 104 -156 339 -338 590 -458 37 -18 67 -36 67 -39
0 -4 -9 -31 -19 -60 -11 -28 -18 -52 -16 -52 2 0 -1 -15 -6 -32 -35 -120 -54
-315 -54 -548 1 -185 13 -277 39 -299 7 -6 40 -12 73 -15 75 -5 82 1 116 104
64 191 93 407 91 678 0 83 2 152 5 152 4 0 49 -11 101 -24 263 -66 599 -95
870 -74 245 19 437 176 499 408 18 63 21 102 19 216 -2 135 -1 142 31 234 41
117 42 177 6 255 -26 52 -82 101 -144 125 -172 66 -212 87 -282 145 -36 30
-85 96 -97 132 l-11 32 37 -5 c53 -6 340 -6 385 1 20 3 52 7 70 9 111 15 137
20 178 38 33 14 52 30 68 58 20 35 22 58 28 236 3 109 6 205 8 213 1 9 18 22
39 28 104 35 217 103 292 175 138 133 145 366 15 496 -26 26 -80 70 -121 97
-233 157 -372 371 -415 641 -3 17 -7 89 -10 160 -3 71 -8 138 -10 149 -2 11
-4 23 -4 27 -1 7 -58 28 -75 27 -6 0 -21 -4 -32 -9z"/>
<path d="M5725 3916 c-74 -23 -86 -34 -80 -69 13 -77 16 -99 31 -232 26 -215
24 -484 -6 -675 -38 -243 -153 -577 -258 -749 -18 -28 -32 -54 -32 -56 0 -9
-152 -233 -224 -330 -36 -49 -66 -94 -66 -101 0 -14 78 -104 91 -104 29 0 256
185 328 268 170 193 312 442 385 677 28 91 46 159 52 195 3 14 9 50 14 80 15
85 24 206 24 305 -1 87 -11 234 -19 265 -2 8 -6 32 -9 52 -11 70 -26 133 -58
228 -33 100 -106 253 -123 256 -5 2 -28 -3 -50 -10z"/>
<path d="M5050 3703 c-40 -11 -110 -48 -111 -57 -2 -15 -2 -11 6 -111 14 -172
8 -455 -10 -508 -3 -7 -6 -23 -9 -37 -19 -114 -93 -321 -156 -436 -19 -32 -69
-114 -112 -180 -89 -137 -89 -141 -24 -206 l37 -37 52 31 c214 125 382 345
468 612 46 146 67 386 45 516 -27 155 -46 214 -103 322 -38 73 -60 98 -83 91z"/>
<path d="M4305 3464 c-28 -14 -56 -32 -63 -38 -7 -7 -14 -47 -17 -96 -3 -47
-7 -107 -10 -135 -3 -27 -6 -53 -6 -57 0 -27 -39 -130 -86 -230 -54 -116 -54
-117 -37 -145 65 -106 62 -105 147 -73 61 23 150 101 193 170 57 92 77 158 80
265 4 110 -6 165 -40 240 -20 45 -88 125 -105 125 -3 0 -29 -12 -56 -26z"/>
</g>
</svg>
