<?xml version="1.0" encoding="UTF-8" standalone="no"?><!DOCTYPE svg PUBLIC "-//W3C//DTD SVG 1.1//EN" "http://www.w3.org/Graphics/SVG/1.1/DTD/svg11.dtd"><svg width="100%" height="100%" viewBox="0 0 1347 1346" version="1.1" xmlns="http://www.w3.org/2000/svg" xmlns:xlink="http://www.w3.org/1999/xlink" xml:space="preserve" xmlns:serif="http://www.serif.com/" style="fill-rule:evenodd;clip-rule:evenodd;stroke-linejoin:round;stroke-miterlimit:2;"><g><path d="M673.538,636.592l291.104,-291.109l-582.213,0l291.108,291.109l0.001,0Z" style="fill:#1293d8;fill-rule:nonzero;"/><path d="M36.946,0l293.225,293.229l637.383,0l-293.229,-293.229l-637.379,0Z" style="fill:#1293d8;fill-rule:nonzero;"/><path d="M1346.4,672.08l-317.24,-317.24l-318.687,318.687l317.24,317.24l318.687,-318.687Z" style="fill:#1293d8;"/><path d="M1347.08,598.85l0,-598.85l-598.854,0l598.854,598.85Z" style="fill:#1293d8;fill-rule:nonzero;"/><path d="M636.588,673.538l-636.588,-636.588l0,1273.18l636.588,-636.596l0,0.004Z" style="fill:#1293d8;fill-rule:nonzero;"/><path d="M1064.67,1027.73l282.4,282.404l0,-564.804l-282.4,282.4Z" style="fill:#1293d8;fill-rule:nonzero;"/><path d="M673.538,710.488l-636.584,636.587l1273.17,0l-636.588,-636.588l0.002,0.001Z" style="fill:#1293d8;fill-rule:nonzero;"/></g></svg>